<svg width="83" height="17" viewBox="0 0 83 17" fill="none" xmlns="http://www.w3.org/2000/svg">
    <path d="M12.096 11.76C11.52 11.616 11.44 11.168 11.44 10.288V6.96C11.44 5.024 10.656 4.464 9.376 4.464C8.368 4.464 7.344 5.2 7.024 6.176C6.816 4.976 6.128 4.464 5.008 4.464C4 4.464 3.056 5.184 2.656 6.112V4.464L0.16 5.008V5.248C0.816 5.52 0.96 5.792 0.96 6.352V10.304C0.96 11.12 0.944 11.584 0.336 11.76V12H3.312V11.76C2.752 11.6 2.656 11.184 2.656 10.304V6.784C2.72 6.224 3.36 5.44 4.064 5.44C4.928 5.44 5.36 5.984 5.36 7.008V10.288C5.36 11.104 5.328 11.584 4.72 11.76V12H7.712V11.76C7.136 11.616 7.056 11.168 7.056 10.288L7.04 7.024C7.04 6.944 7.04 6.88 7.04 6.816C7.04 6.208 7.728 5.44 8.432 5.44C9.296 5.44 9.744 5.984 9.744 7.008V10.288C9.744 11.104 9.712 11.584 9.104 11.76V12H12.096V11.76ZM18.5971 8.304C18.5971 11.2 18.0531 11.904 16.8531 11.904C15.6691 11.904 15.1091 11.2 15.1091 8.304C15.1091 5.408 15.6691 4.704 16.8531 4.704C18.0531 4.704 18.5971 5.408 18.5971 8.304ZM20.6131 8.304C20.6131 6.192 19.3011 4.464 16.8531 4.464C14.4211 4.464 13.1091 6.192 13.1091 8.304C13.1091 10.4 14.4211 12.144 16.8531 12.144C19.3011 12.144 20.6131 10.4 20.6131 8.304ZM27.3628 8.304C27.3628 11.2 26.8188 11.904 25.6188 11.904C24.4348 11.904 23.8748 11.2 23.8748 8.304C23.8748 5.408 24.4348 4.704 25.6188 4.704C26.8188 4.704 27.3628 5.408 27.3628 8.304ZM29.3788 8.304C29.3788 6.192 28.0668 4.464 25.6188 4.464C23.1868 4.464 21.8748 6.192 21.8748 8.304C21.8748 10.4 23.1868 12.144 25.6188 12.144C28.0668 12.144 29.3788 10.4 29.3788 8.304ZM36.3204 9.728C36.3204 10.848 35.5844 11.632 34.5124 11.632C33.1684 11.632 32.4964 10.576 32.4964 8.016C32.4964 5.52 33.2804 4.704 34.4004 4.704C35.3444 4.704 36.3204 5.424 36.3204 7.2V9.728ZM38.8164 11.568C38.1604 11.52 38.0004 11.376 38.0004 10.592V0.127999L35.5044 0.639999V0.879999C36.1604 1.056 36.3204 1.248 36.3204 1.808V4.992C35.8084 4.672 35.1364 4.464 34.3684 4.464C32.1924 4.464 30.5284 5.664 30.5284 8.208C30.5284 10.576 31.9364 12.144 33.9204 12.144C34.6884 12.144 35.8084 11.792 36.3204 10.912V11.84C36.3204 11.84 36.3204 12.192 36.7684 12.128L38.8164 11.808V11.568ZM45.6069 8.56C45.6069 11.056 44.8229 11.904 43.7029 11.904C42.7909 11.904 41.9109 11.296 41.7989 9.76V6.8C41.8949 5.776 42.5189 5.008 43.5269 5.008C44.8709 5.008 45.6069 6 45.6069 8.56ZM47.5749 8.368C47.5749 6 46.1669 4.464 44.1989 4.464C43.4149 4.464 42.2949 4.832 41.7989 5.728V4.464L39.3029 5.008V5.248C39.9589 5.424 40.1029 5.568 40.1029 6.128V14.624C40.1029 15.44 40.0709 15.824 39.4629 16V16.24H42.4549V16C41.8789 15.856 41.7989 15.504 41.7989 14.624V11.6C42.2949 11.936 42.9669 12.144 43.7349 12.144C45.9269 12.144 47.5749 10.896 47.5749 8.368ZM50.2485 3.152C50.7765 3.152 51.2245 2.736 51.2245 2.208C51.2245 1.68 50.7765 1.248 50.2485 1.248C49.7205 1.248 49.3045 1.68 49.3045 2.208C49.3045 2.736 49.7205 3.152 50.2485 3.152ZM51.9125 11.76C51.3365 11.6 51.2565 11.168 51.2565 10.288V4.464L48.7605 5.008V5.248C49.4165 5.52 49.5765 5.744 49.5765 6.288V10.288C49.5765 11.104 49.5445 11.568 48.9365 11.76V12H51.9125V11.76ZM59.6196 9.952C59.2836 10.528 58.1636 11.136 57.1716 10.992C56.0516 10.816 54.9956 10 54.9956 8.064C54.9956 5.2 56.6436 4.704 57.2516 4.704C58.0996 4.704 58.4996 5.056 58.3556 5.104C58.1476 5.184 57.9716 5.36 57.8916 5.6C57.7156 6.048 57.9236 6.576 58.3876 6.752C58.8516 6.928 59.3796 6.672 59.5556 6.224C59.6996 5.92 59.5876 5.536 59.3956 5.296C59.1876 5.056 58.6116 4.464 57.2516 4.464C54.6596 4.464 53.2356 6.4 53.2356 8.288C53.2356 10.4 54.8036 12.144 56.7396 12.144C58.7236 12.144 59.6036 10.864 59.8116 10.064L59.6196 9.952ZM68.4618 11.76C68.1418 11.744 67.5338 11.696 67.0378 11.04C67.0378 11.04 66.2378 10.208 64.4618 7.712C66.8138 4.976 68.0938 4.864 68.6058 4.848V4.608H64.8618V4.848C66.9738 4.8 64.6378 7.072 64.6378 7.072L63.1338 8.672C63.1338 8.672 63.8218 9.584 64.1898 10.112C65.3098 11.712 65.5178 12 66.6218 12H68.4618V11.76ZM63.4058 11.76C62.8298 11.616 62.7498 11.168 62.7498 10.288V0.127999L60.2538 0.639999V0.879999C60.9098 1.056 61.0538 1.296 61.0538 1.856V10.288C61.0538 11.104 61.0218 11.584 60.4138 11.76V12H63.4058V11.76ZM70.3993 7.92C70.3993 6.144 71.2313 4.704 72.1593 4.704C72.9753 4.704 73.8233 5.744 73.8233 7.92H70.3993ZM75.0073 9.968C74.6553 10.736 73.4553 11.184 72.5273 11.04C71.3753 10.864 70.4953 10.016 70.3993 8.16H75.4873C75.4873 5.648 74.3193 4.464 72.2233 4.464C70.1273 4.464 68.6073 6.048 68.6073 8.352C68.6073 10.352 70.0473 12.144 72.0793 12.144C74.0953 12.144 75.0233 10.864 75.2313 10.08L75.0073 9.968ZM80.8926 4.528C80.3806 4.656 79.5966 4.992 78.8766 6.192V4.464L76.3646 5.008V5.248C77.0206 5.488 77.1646 5.728 77.1646 6.272V10.272C77.1646 11.104 77.1326 11.568 76.5246 11.76V12H79.5326V11.76C78.9566 11.6 78.8766 11.168 78.8766 10.272V6.608C79.4206 5.6 80.2846 5.328 80.2526 5.552C80.2366 5.792 80.3326 6.048 80.5246 6.256C80.9566 6.656 81.5966 6.64 81.9966 6.24C82.3966 5.84 82.3966 5.184 81.9966 4.784C81.7086 4.512 81.2126 4.448 80.8926 4.528Z"
          fill="#212121"/>
</svg>
